<svg
  xmlns="http://www.w3.org/2000/svg"
  width="80"
  height="80"
  viewBox="0 0 80 80"
  version="1.1"
>
  <circle
    style="fill:#ff0000"
    id="circle1618"
    cx="10.583334"
    cy="10.583334"
    r="0" />
  <rect
    y="1"
    x="1"
    height="78"
    width="78"
    style="fill:rgb(255, 255, 255)" />
  <path
    d="m 23.499818,25.997377 c -0.830967,0 -1.499981,0.638059 -1.499981,1.430663 v 4.069531 20.999963 0.06916 c 0,0.792642 0.669014,1.430667 1.499981,1.430667 h 10.000027 22.999972 c 0.831007,0 1.50002,-0.669017 1.50002,-1.500021 V 31.49742 c 0,-0.831004 -0.669013,-1.500017 -1.50002,-1.500017 H 36.185387 L 34.999826,27.427964 C 34.709934,26.799506 34.33081,25.997226 33.499845,25.997226 Z"
    style="fill:#39a4e7" />
 <path
   style="fill:#e5007f"
   d="M 0,0 V 80 H 80 V 0 Z M 40,6 A 34,34 0 0 1 74,40 34,34 0 0 1 40,74 34,34 0 0 1 6,40 34,34 0 0 1 40,6 Z" />
</svg>
