<svg
  xmlns="http://www.w3.org/2000/svg"
  width="80"
  height="80"
  viewBox="0 0 80 80"
  version="1.1"
>
 <defs>
  <clipPath
    clipPathUnits="userSpaceOnUse"
    id="clip">
   <circle
     r="39.5"
     cx="40"
     cy="40" />
  </clipPath>
 </defs>
 <g
   clip-path="url(#clip)"
	>
<circle style="fill:#693030" r="39" cx="40" cy="40" />
  <path
    style="fill:rgba(0,0,0,0.025)"
    d="M 58.144531 26.697266 L 23.6875 27.373047 L 18.511719 52.490234 L 46.021484 80 L 80 80 L 80 48.552734 L 58.144531 26.697266 z "
  />
  <path
    d="m 30.584051,22.994158 c -4.09818,0 -9.048488,2.198174 -11.583984,8.000013 -2.535534,5.802335 -5.376907,21.801337 2.124998,22.74962 7.50195,0.948662 9.42584,-9.04543 15.874964,-9.749556 h 5.999997 c 6.449159,0.704126 8.37309,10.698218 15.874999,9.749556 7.501909,-0.948283 4.660498,-16.947285 2.125002,-22.74962 -2.535534,-5.801839 -7.485809,-8.000013 -11.583988,-8.000013 -4.945399,0 -6.416013,3.000189 -8.415988,3.000189 h -2.000013 c -2.000009,0 -3.470626,-3.000189 -8.415987,-3.000189 z m 18.915969,5.626961 c 1.03113,0 1.875099,0.843969 1.875023,1.874911 -1.89e-4,1.031055 -0.844044,1.875023 -1.875023,1.875023 -1.030942,0 -1.874797,-0.843968 -1.874986,-1.875023 -7.6e-5,-1.030942 0.843855,-1.874911 1.874986,-1.874911 z m -18.99995,0.374173 c 0.831005,0 1.500023,0.668863 1.500023,1.499982 v 2.499779 h 2.499927 c 0.831005,0 1.500019,0.668977 1.500019,1.500095 0,0.831118 -0.669014,1.500094 -1.500019,1.500094 h -2.499927 v 2.500162 c 0,0.83074 -0.669018,1.499716 -1.500023,1.499716 -0.831005,0 -1.499977,-0.668976 -1.499977,-1.499716 v -2.500162 h -2.500011 c -0.831,0 -1.500015,-0.668976 -1.500015,-1.500094 0,-0.831118 0.669015,-1.500095 1.500015,-1.500095 h 2.500011 v -2.499779 c 0,-0.831119 0.668972,-1.499982 1.499977,-1.499982 z m 14.999962,3.6271 c 1.031131,0 1.875099,0.84359 1.874986,1.874646 1.13e-4,1.031055 -0.843855,1.875023 -1.874986,1.875023 -1.031168,0 -1.875061,-0.843968 -1.874986,-1.875023 -7.5e-5,-1.031056 0.843818,-1.874646 1.874986,-1.874646 z m 8.001941,0 c 1.03113,0 1.875099,0.84359 1.875023,1.874646 7.6e-5,1.031055 -0.843893,1.875023 -1.875023,1.875023 -1.031169,0 -1.875062,-0.843968 -1.874986,-1.875023 -7.6e-5,-1.031056 0.843817,-1.874646 1.874986,-1.874646 z m -4.001953,4.001764 c 1.030979,0 1.874834,0.843968 1.875023,1.875027 7.6e-5,1.031055 -0.843893,1.875024 -1.875023,1.875024 -1.031131,0 -1.875062,-0.843969 -1.874986,-1.875024 1.89e-4,-1.031059 0.844044,-1.875027 1.874986,-1.875027 z"
    style="fill:#FFFFE9"
  />
 </g>
</svg>
