<?xml version="1.0" encoding="UTF-8" standalone="no"?>
<!-- Created with Inkscape (http://www.inkscape.org/) -->

<svg
  xmlns:dc="http://purl.org/dc/elements/1.1/"
  xmlns:cc="http://creativecommons.org/ns#"
  xmlns:rdf="http://www.w3.org/1999/02/22-rdf-syntax-ns#"
  xmlns:svg="http://www.w3.org/2000/svg"
  xmlns="http://www.w3.org/2000/svg"
  xmlns:sodipodi="http://sodipodi.sourceforge.net/DTD/sodipodi-0.dtd"
  xmlns:inkscape="http://www.inkscape.org/namespaces/inkscape"
  width="40"
  height="40"
  viewBox="0 0 10.583333 10.583333"
  version="1.1"
  id="svg1720"
  inkscape:version="0.92.3 (unknown)"
  sodipodi:docname="icon-close.svg">
 <defs
   id="defs1714" />
 <sodipodi:namedview
   id="base"
   pagecolor="#000000"
   bordercolor="#666666"
   borderopacity="1.0"
   inkscape:pageopacity="0.01960784"
   inkscape:pageshadow="2"
   inkscape:zoom="8"
   inkscape:cx="30.847279"
   inkscape:cy="14.235782"
   inkscape:document-units="px"
   inkscape:current-layer="layer1"
   showgrid="false"
   units="px"
   inkscape:window-width="1276"
   inkscape:window-height="728"
   inkscape:window-x="1280"
   inkscape:window-y="778"
   inkscape:window-maximized="0" />
 <metadata
   id="metadata1717">
  <rdf:RDF>
   <cc:Work
     rdf:about="">
    <dc:format>image/svg+xml</dc:format>
    <dc:type
      rdf:resource="http://purl.org/dc/dcmitype/StillImage" />
    <dc:title />
   </cc:Work>
  </rdf:RDF>
 </metadata>
 <g
   inkscape:label="Ebene 1"
   inkscape:groupmode="layer"
   id="layer1"
   transform="translate(0,-286.41666)">
  <path
    inkscape:connector-curvature="0"
    style="color:#000000;fill:#ffffff;fill-rule:evenodd;stroke-width:0.79374993;stroke-linecap:round"
    d="m 4.2358667,290.38577 a 0.2599402,0.26007233 0 0 0 -0.1880156,0.44679 l 0.875703,0.87571 -0.8784912,0.87888 a 0.26007928,0.26021149 0 1 0 0.3685006,0.3673 l 0.8780843,-0.87809 0.8781045,0.87809 a 0.26007212,0.26020433 0 1 0 0.3684804,-0.3673 l -0.8784914,-0.87888 0.875703,-0.87571 a 0.2599402,0.26007233 0 0 0 -0.1891959,-0.44679 0.2599402,0.26007233 0 0 0 -0.1788773,0.0782 l -0.8757233,0.87611 -0.875703,-0.87611 a 0.2599402,0.26007233 0 0 0 -0.1788774,-0.0782 0.2599402,0.26007233 0 0 0 -0.00203,0 z"
    id="path1443" />
 </g>
</svg>
