<?xml version="1.0" encoding="UTF-8" standalone="no"?>
<!-- Created with Inkscape (http://www.inkscape.org/) -->

<svg
  xmlns:dc="http://purl.org/dc/elements/1.1/"
  xmlns:cc="http://creativecommons.org/ns#"
  xmlns:rdf="http://www.w3.org/1999/02/22-rdf-syntax-ns#"
  xmlns:svg="http://www.w3.org/2000/svg"
  xmlns="http://www.w3.org/2000/svg"
  xmlns:sodipodi="http://sodipodi.sourceforge.net/DTD/sodipodi-0.dtd"
  xmlns:inkscape="http://www.inkscape.org/namespaces/inkscape"
  width="40"
  height="40"
  viewBox="0 0 10.583333 10.583333"
  version="1.1"
  id="svg1720"
  inkscape:version="0.92.3 (unknown)"
  sodipodi:docname="icon-reload.svg">
 <defs
   id="defs1714" />
 <sodipodi:namedview
   id="base"
   pagecolor="#000000"
   bordercolor="#666666"
   borderopacity="1.0"
   inkscape:pageopacity="0.01960784"
   inkscape:pageshadow="2"
   inkscape:zoom="11.313708"
   inkscape:cx="18.61478"
   inkscape:cy="-3.2960605"
   inkscape:document-units="px"
   inkscape:current-layer="layer1"
   showgrid="true"
   units="px"
   inkscape:window-width="1276"
   inkscape:window-height="1483"
   inkscape:window-x="1280"
   inkscape:window-y="25"
   inkscape:window-maximized="0">
  <inkscape:grid
    type="xygrid"
    id="grid8" />
 </sodipodi:namedview>
 <metadata
   id="metadata1717">
  <rdf:RDF>
   <cc:Work
     rdf:about="">
    <dc:format>image/svg+xml</dc:format>
    <dc:type
      rdf:resource="http://purl.org/dc/dcmitype/StillImage" />
    <dc:title></dc:title>
   </cc:Work>
  </rdf:RDF>
 </metadata>
 <g
   inkscape:label="Ebene 1"
   inkscape:groupmode="layer"
   id="layer1"
   transform="translate(0,-286.41666)">
  <path
    style="fill:#ffffff;fill-rule:evenodd;stroke-width:0.79375011;stroke-linecap:round"
    d="m 5.4262866,289.45954 v 0.53382 a 1.9843764,1.9843764 0 0 0 -0.13229,-0.005 1.9843764,1.9843764 0 0 0 -1.98438,1.98437 1.9843764,1.9843764 0 0 0 1.98438,1.98438 1.9843764,1.9843764 0 0 0 1.9797199,-1.85209 H 6.4763666 a 1.1906262,1.1906262 0 0 1 -1.18237,1.05834 1.1906262,1.1906262 0 0 1 -1.19063,-1.19063 1.1906262,1.1906262 0 0 1 1.19063,-1.19062 1.1906262,1.1906262 0 0 1 0.13229,0.008 v 0.52089 l 1.05833,-0.92604 z"
    id="path1686"
    inkscape:connector-curvature="0" />
 </g>
</svg>
