<?xml version="1.0" encoding="UTF-8" standalone="no"?>
<!-- Created with Inkscape (http://www.inkscape.org/) -->

<svg
  xmlns:dc="http://purl.org/dc/elements/1.1/"
  xmlns:cc="http://creativecommons.org/ns#"
  xmlns:rdf="http://www.w3.org/1999/02/22-rdf-syntax-ns#"
  xmlns:svg="http://www.w3.org/2000/svg"
  xmlns="http://www.w3.org/2000/svg"
  xmlns:sodipodi="http://sodipodi.sourceforge.net/DTD/sodipodi-0.dtd"
  xmlns:inkscape="http://www.inkscape.org/namespaces/inkscape"
  width="40"
  height="40"
  viewBox="0 0 10.583333 10.583333"
  version="1.1"
  id="svg1720"
  inkscape:version="0.92.3 (unknown)"
  sodipodi:docname="icon-settings.svg">
 <defs
   id="defs1714" />
 <sodipodi:namedview
   id="base"
   pagecolor="#000000"
   bordercolor="#666666"
   borderopacity="1.0"
   inkscape:pageopacity="0.01960784"
   inkscape:pageshadow="2"
   inkscape:zoom="16"
   inkscape:cx="23.136799"
   inkscape:cy="7.9238814"
   inkscape:document-units="px"
   inkscape:current-layer="layer1"
   showgrid="true"
   units="px"
   inkscape:window-width="1276"
   inkscape:window-height="1483"
   inkscape:window-x="1280"
   inkscape:window-y="25"
   inkscape:window-maximized="0">
  <inkscape:grid
    type="xygrid"
    id="grid9" />
 </sodipodi:namedview>
 <metadata
   id="metadata1717">
  <rdf:RDF>
   <cc:Work
     rdf:about="">
    <dc:format>image/svg+xml</dc:format>
    <dc:type
      rdf:resource="http://purl.org/dc/dcmitype/StillImage" />
    <dc:title></dc:title>
   </cc:Work>
  </rdf:RDF>
 </metadata>
 <g
   inkscape:label="Ebene 1"
   inkscape:groupmode="layer"
   id="layer1"
   transform="translate(0,-286.41666)">
  <g
    style="stroke-width:1.25103021"
    id="g1453"
    transform="matrix(0.79934117,0,0,0.79934117,-311.4433,112.78619)">
   <path
     style="color:#000000;fill:#ffffff;fill-rule:evenodd;stroke-width:3.00000024;stroke-linecap:round"
     d="m 1320.0254,163.00195 -0.4277,2.28907 a 6.4999807,6.4999807 0 0 0 -1.1446,0.47265 l -1.9199,-1.3164 -2.0898,2.08398 1.3183,1.92383 a 6.4999807,6.4999807 0 0 0 -0.4765,1.14453 l -2.2872,0.42383 v 2.95117 l 2.293,0.42969 a 6.4999807,6.4999807 0 0 0 0.4707,1.14062 l -1.3183,1.92188 2.0898,2.08984 1.9199,-1.31836 a 6.4999807,6.4999807 0 0 0 1.1446,0.47656 l 0.4277,2.28711 h 2.9512 l 0.4257,-2.29297 a 6.4999807,6.4999807 0 0 0 1.1407,-0.4707 l 1.9258,1.31836 2.0839,-2.08984 -1.3144,-1.91797 a 6.4999807,6.4999807 0 0 0 0.4765,-1.14649 l 2.2832,-0.42773 v -2.95117 l -2.289,-0.42383 a 6.4999807,6.4999807 0 0 0 -0.4727,-1.14649 l 1.3164,-1.92187 -2.0839,-2.08398 -1.9219,1.3164 a 6.4999807,6.4999807 0 0 0 -1.1465,-0.47851 l -0.4238,-2.28321 z M 1321.5,168 a 3.5,3.5 0 0 1 3.5,3.5 3.5,3.5 0 0 1 -3.5,3.5 3.5,3.5 0 0 1 -3.5,-3.5 3.5,3.5 0 0 1 3.5,-3.5 z"
     transform="matrix(0.33100176,0,0,0.33100176,-41.17313,167.06956)"
     id="path1447"
     inkscape:connector-curvature="0" />
  </g>
 </g>
</svg>
