<svg
  xmlns="http://www.w3.org/2000/svg"
  width="80"
  height="80"
  viewBox="0 0 80 80"
  version="1.1"
>
  <rect
    y="1"
    x="1"
    height="78"
    width="78"
    style="fill:#fb2a5e" />
  <g
    style="fill:#ffffff"
    transform="matrix(3.7795277,0,0,3.7795277,569.99984,-3430.0054)">
   <path
     d="m -138.73678,916.25237 a 2.3812502,2.3812519 30 0 1 0.56999,3.0427 l -2.36316,4.09279 c 1.93088,0.10853 3.85092,-0.84833 4.88394,-2.63758 0.82196,-1.42367 0.90519,-3.06938 0.37207,-4.49791 z"
	/>
   <path
     d="m -142.57934,917.73801 a 2.3812519,2.3812502 0 0 1 2.35007,-2.01498 l 4.72604,1.6e-4 c -0.87145,-1.72645 -2.66014,-2.91082 -4.72619,-2.91082 -1.64391,0 -3.11075,0.75077 -4.08134,1.92673 z"
   />
   <path
     d="m -139.37145,920.32295 a 2.3812519,2.3812502 60 0 1 -2.92006,-1.02773 l -2.36289,-4.09295 c -1.05942,1.61792 -1.19077,3.75915 -0.15775,5.5484 0.82196,1.42367 2.20556,2.31861 3.70927,2.57118 z"
	/>
   <circle
     cx="-140.22916"
     cy="918.10571"
     r="1.8520834" />
  </g>
 <path
   style="fill:#ffffff"
   d="M 0,0 V 80 H 80 V 0 Z M 40,6 A 34,34 0 0 1 74,40 34,34 0 0 1 40,74 34,34 0 0 1 6,40 34,34 0 0 1 40,6 Z" />
</svg>
