<svg
  xmlns="http://www.w3.org/2000/svg"
  version="1.1"
  viewBox="0 0 40 40"
  height="40"
  width="40">
 <path
   d="m 18.369593,13.152495 c -2.933985,0 -5.33053,2.394943 -5.33053,5.328925 0,2.933989 2.396545,5.330527 5.33053,5.330527 1.158603,0 2.230291,-0.378566 3.106798,-1.011515 l 4.302956,3.996292 1.119091,-1.205791 -4.251578,-3.94652 c 0.658076,-0.886661 1.053259,-1.97929 1.053259,-3.162993 0,-2.933982 -2.396546,-5.328925 -5.330526,-5.328925 z m 0,1.644116 c 2.045436,0 3.686413,1.639374 3.686413,3.684809 0,2.045435 -1.640978,3.686414 -3.686413,3.686414 -2.045437,0 -3.686414,-1.640979 -3.686414,-3.686414 0,-2.045435 1.640977,-3.684809 3.686414,-3.684809 z"
   style="fill:#ffffff"
/>
</svg>
