<?xml version="1.0" encoding="UTF-8" standalone="no"?>
<svg
  xmlns:dc="http://purl.org/dc/elements/1.1/"
  xmlns:cc="http://creativecommons.org/ns#"
  xmlns:rdf="http://www.w3.org/1999/02/22-rdf-syntax-ns#"
  xmlns:svg="http://www.w3.org/2000/svg"
  xmlns="http://www.w3.org/2000/svg"
  width="80"
  height="80"
  viewBox="0 0 80 80"
  version="1.1"
>
  <rect
    y="1"
    x="1"
    height="78"
    width="78"
    style="fill:#efc53b" />  
  <path
    style="fill:rgba(0,0,0,0.1)"
    d="M 39.972656 19.994141 L 35.896484 39.683594 L 21.173828 33.652344 L 35.263672 47.740234 L 28.355469 55.75 L 52.605469 80 L 80 80 L 80 54.882812 L 58.769531 33.652344 L 55.908203 35.931641 L 39.972656 19.994141 z "
	/>
  <path
    d="m 39.97169,19.995288 4.887406,13.038059 13.909958,0.619306 -10.889378,8.677312 3.709425,13.420801 -11.617411,-7.675216 -11.617407,7.675216 3.709426,-13.420801 -10.88938,-8.677312 13.90996,-0.619306 z"
    style="fill:#ffffff" />
 <path
   style="fill:#e34e3d"
   d="M 0,0 V 80 H 80 V 0 Z M 40,6 A 34,34 0 0 1 74,40 34,34 0 0 1 40,74 34,34 0 0 1 6,40 34,34 0 0 1 40,6 Z"
	/>     
</svg>
