<?xml version="1.0" encoding="UTF-8" standalone="no"?>
<svg
  xmlns:dc="http://purl.org/dc/elements/1.1/"
  xmlns:cc="http://creativecommons.org/ns#"
  xmlns:rdf="http://www.w3.org/1999/02/22-rdf-syntax-ns#"
  xmlns:svg="http://www.w3.org/2000/svg"
  xmlns="http://www.w3.org/2000/svg"
  width="80"
  height="80"
  viewBox="0 0 80 80"
  version="1.1"
>
  <rect
    y="1"
    x="1"
    height="78"
    width="78"
    style="fill:#ffffff" />
  <path
    style="fill:rgba(0,0,0,0.1)"
    d="M 46 25 L 31.90625 46.90625 L 65 80 L 80 80 L 80 59 L 46 25 z "
	/>
  <path
    style="fill:#357791"
    d="M 34.0,25.0 V 40 H 25.0 L 40.0,55 55.0,40 h -9 V 25.0 Z"
	/>
 <path
   style="fill:#1bb899"
   d="M 0,0 V 80 H 80 V 0 Z M 40,6 A 34,34 0 0 1 74,40 34,34 0 0 1 40,74 34,34 0 0 1 6,40 34,34 0 0 1 40,6 Z" />    
</svg>
