<svg
  xmlns="http://www.w3.org/2000/svg"
  version="1.1"
  viewBox="0 0 20 20"
  width="20"
  height="20"
  >
 <path
   d="m 8.5162275,3.6701235 c -2.722289,0 -4.945915,2.22214 -4.945915,4.944426 0,2.7222925 2.223626,4.9459115 4.945915,4.9459115 1.075005,0 2.0693685,-0.351251 2.8826325,-0.93853 l 3.992483,3.707945 1.038344,-1.118788 -3.944812,-3.661766 c 0.610593,-0.822685 0.977263,-1.8364785 0.977263,-2.9347725 0,-2.722286 -2.223627,-4.944426 -4.9459105,-4.944426 z m 0,1.525488 c 1.8978505,0 3.4204255,1.521088 3.4204255,3.418938 0,1.8978495 -1.522576,3.4204265 -3.4204255,3.4204265 -1.897852,0 -3.420427,-1.522577 -3.420427,-3.4204265 0,-1.89785 1.522575,-3.418938 3.420427,-3.418938 z"
   style="fill:#ffffff"
/>
</svg>
