<svg
  xmlns="http://www.w3.org/2000/svg"
  width="80"
  height="80"
  viewBox="0 0 80 80"
  version="1.1"
>
 <defs>
  <clipPath
    clipPathUnits="userSpaceOnUse"
    id="clip">
   <circle
     r="39.5"
     cx="40"
     cy="40" />
  </clipPath>
 </defs>
 <g clip-path="url(#clip)">
<circle style="fill:#546E7A" r="39" cx="40" cy="40" />
  <path
    style="fill:rgba(0,0,0,0.1)"
    d="M 40 19.994141 C 28.954284 19.994091 19.999948 28.948425 20 39.994141 C 20.0049 45.297537 22.116075 50.381837 25.869141 54.128906 L 25.857422 54.140625 L 51.716797 80 L 80 80 L 80 51.714844 L 54.140625 25.855469 C 54.137625 25.859269 54.136513 25.863367 54.132812 25.867188 C 50.386094 22.113436 45.30168 20.001579 39.998047 19.996094 L 40 19.994141 z "
	/>
  <g
    style="fill:#ffffff"
    transform="matrix(3.7795277,0,0,3.7795277,569.99984,-3430.0054)">
   <path
     d="m -138.73678,916.25237 a 2.3812502,2.3812519 30 0 1 0.56999,3.0427 l -2.36316,4.09279 c 1.93088,0.10853 3.85092,-0.84833 4.88394,-2.63758 0.82196,-1.42367 0.90519,-3.06938 0.37207,-4.49791 z"
	/>
   <path
     d="m -142.57934,917.73801 a 2.3812519,2.3812502 0 0 1 2.35007,-2.01498 l 4.72604,1.6e-4 c -0.87145,-1.72645 -2.66014,-2.91082 -4.72619,-2.91082 -1.64391,0 -3.11075,0.75077 -4.08134,1.92673 z"
   />
   <path
     d="m -139.37145,920.32295 a 2.3812519,2.3812502 60 0 1 -2.92006,-1.02773 l -2.36289,-4.09295 c -1.05942,1.61792 -1.19077,3.75915 -0.15775,5.5484 0.82196,1.42367 2.20556,2.31861 3.70927,2.57118 z"
	/>
   <circle
     cx="-140.22916"
     cy="918.10571"
     r="1.8520834" />
  </g>
 </g>
</svg>
