<?xml version="1.0" encoding="UTF-8" standalone="no"?>
<svg
  xmlns:dc="http://purl.org/dc/elements/1.1/"
  xmlns:cc="http://creativecommons.org/ns#"
  xmlns:rdf="http://www.w3.org/1999/02/22-rdf-syntax-ns#"
  xmlns:svg="http://www.w3.org/2000/svg"
  xmlns="http://www.w3.org/2000/svg"
  xmlns:xlink="http://www.w3.org/1999/xlink"
  width="450"
  height="280"
  viewBox="0 0 450 280"
  version="1.1"
  style="enable-background:new"
  id="svg45">
 <metadata
   id="metadata39">
  <rdf:RDF>
   <cc:Work
     rdf:about="">
    <dc:format>image/svg+xml</dc:format>
    <dc:type
      rdf:resource="http://purl.org/dc/dcmitype/StillImage" />
    <dc:title></dc:title>
   </cc:Work>
  </rdf:RDF>
 </metadata>
 <defs
   id="defs37" />
 <g
   id="icons"
   transform="translate(-60)">
  <g
    id="g2408"
    style="stroke-width:0.81818223"
    transform="matrix(1.2222216,0,0,1.2222216,179.47495,-450.5692)">
   <circle
     id="circle2402"
     r="1.0662425"
     cy="518.1452"
     cx="-129.12694" />
   <path
     id="path2404"
     d="m -130.19318,514.78799 c 2.3476,0 4.40528,2.05766 4.40528,4.40526 h 1.39017 c 0,-3.13014 -2.66531,-5.79546 -5.79545,-5.79546 z" />
   <path
     id="path2406"
     d="m -130.19318,511.52936 c 4.14214,0 7.6639,3.52175 7.6639,7.66389 h 1.44457 c 0,-4.97056 -4.13791,-9.07231 -9.10847,-9.07231 z" />
  </g>
  <g
    transform="matrix(0.82299275,0,0,0.82299275,14.07143,-666.46869)"
    id="g2412"
    style="stroke-width:1.21507752;enable-background:new">
   <path
     id="path2410"
     transform="translate(0,960)"
     d="m 13.023438,11.675781 c -3.5690731,0 -6.4843755,2.913352 -6.4843755,6.482422 0,3.56908 2.9153024,6.484375 6.4843755,6.484375 1.409396,0 2.71306,-0.460511 3.779296,-1.230469 l 4.747865,4.496584 1.361329,-1.466797 -4.685366,-4.436037 c 0.800525,-1.078589 1.28125,-2.407729 1.28125,-3.847656 0,-3.56907 -2.915303,-6.482422 -6.484374,-6.482422 z m 0,2 c 2.488191,0 4.484374,1.994232 4.484374,4.482422 0,2.48819 -1.996184,4.484375 -4.484374,4.484375 -2.488192,0 -4.4843755,-1.996185 -4.4843755,-4.484375 0,-2.48819 1.9961835,-4.482422 4.4843755,-4.482422 z"
     style="color:#000000;opacity:0.9;fill-rule:evenodd;stroke-width:2.43015504;stroke-linecap:round;paint-order:stroke markers fill" />
  </g>
  <g
    transform="translate(-4.62497,-9.5)"
    id="g2418">
   <path
     id="path2414"
     d="m 25.125,224 c -0.276131,3e-5 -0.499972,0.22387 -0.5,0.5 v 8.5 c 2.8e-5,0.27613 0.223869,0.49997 0.5,0.5 h 10 c 0.276131,-3e-5 0.499972,-0.22387 0.5,-0.5 v -8.5 c -2.8e-5,-0.27613 -0.223869,-0.49997 -0.5,-0.5 z m 1,1.5 h 8 v 6.5 h -8 z"
     style="color:#000000;fill-rule:evenodd;stroke-width:1.00000012;paint-order:markers stroke fill" />
   <path
     style="fill-rule:evenodd;stroke-width:1.00000012;paint-order:markers stroke fill"
     d="m 35.625,221 v 4 h -4.707107 z"
     id="path2416" />
  </g>
  <g
    transform="translate(-3.51528,-208.00023)"
    id="g2424">
   <path
     style="color:#000000;stroke-width:1.39999998;stroke-linecap:round;paint-order:markers fill stroke"
     d="m 29,300.08984 c -3.830088,0 -6.949219,3.12109 -6.949219,6.95118 0,3.83008 3.119131,6.94921 6.949219,6.94921 3.830088,0 6.949219,-3.11913 6.949219,-6.94921 0,-3.83009 -3.119131,-6.95118 -6.949219,-6.95118 z m 0,1.40039 c 3.073472,0 5.550781,2.47731 5.550781,5.55079 0,3.07347 -2.477309,5.54882 -5.550781,5.54882 -3.073472,0 -5.550781,-2.47535 -5.550781,-5.54882 0,-3.07348 2.477309,-5.55079 5.550781,-5.55079 z"
     id="circle2420" />
   <path
     style="color:#000000;fill-rule:evenodd;stroke-width:1.20000005;stroke-linecap:round"
     d="m 28.740234,303.68555 a 0.60006002,0.60006002 0 0 0 -0.589843,0.60742 v 3.39648 A 0.60006002,0.60006002 0 0 0 28.75,308.28906 h 2.091797 a 0.60006002,0.60006002 0 1 0 0,-1.19922 h -1.492188 v -2.79687 a 0.60006002,0.60006002 0 0 0 -0.609375,-0.60742 z"
     id="path2422" />
  </g>
  <g
    style="stroke-width:34.74791718"
    id="g2434"
    transform="matrix(0.02877872,0,0,0.02877872,17.93987,52.076295)">
   <g
     id="g2432">
    <g
      id="g2430">
     <path
       id="path2426"
       d="m 438.94106,256 c 43.083,-26.972 61.0521,-89.39254 38.76194,-128 C 455.41259,89.392111 392.41118,73.696169 347.46918,97.569169 345.65418,46.772169 300.57996,-1.0881242e-4 256,0 211.41998,1.0881258e-4 166.34616,46.772761 164.53116,97.569761 119.51716,73.659761 56.585508,89.390734 34.298,128 12.009618,166.61078 29.997457,229.028 73.080457,256 29.997457,282.972 12.006173,345.39052 34.297,384 c 22.290941,38.60968 85.29822,54.28755 130.24322,30.41455 1.815,50.797 46.87801,97.58534 91.45978,97.58545 44.58171,1.1e-4 89.64513,-46.78785 91.46013,-97.58485 44.97,23.888 107.94814,8.19247 130.24187,-30.41515 22.29272,-38.60587 4.32206,-101.028 -38.76094,-128 z M 443.06,364 c -15.201,26.33 -48.808,35.329 -75.131,20.131 -7.3,-4.215 -19.66359,-16.90987 -32.39309,-28.45537 -12.7295,-11.5455 -36.6135,2.2685 -32.983,19.044 C 306.18341,391.49513 311,408.566 311,417 c 0,30.327 -24.673,55 -55,55 -30.327,0 -55,-24.673 -55,-55 0,-8.434 4.79721,-25.41145 8.44771,-42.28145 3.6505,-16.87 -20.3315,-30.5205 -32.985,-19.044 C 163.80921,367.15105 151.37,379.916 144.069,384.131 117.741,399.331 84.137,390.325 68.938,364 53.775,337.736 62.806,304.032 89.07,288.869 c 7.301,-4.216 24.47929,-8.5745 40.84179,-13.825 16.3625,-5.2505 16.3435,-32.842 0,-38.087 C 113.56829,231.712 96.373,227.348 89.07,223.132 62.806,207.968 53.775,174.264 68.939,148 c 15.2,-26.328 48.807,-35.33 75.131,-20.131 7.302,4.216 19.67709,16.92836 32.40059,28.46836 12.7235,11.54 36.6165,-2.2585 32.984,-19.044 C 205.82209,120.50786 201,103.433 201,95 c 0,-30.327 24.673,-55 55,-55 30.327,0 55,24.673 55,55 0,8.433 -4.82014,25.49796 -8.45464,42.29246 -3.6345,16.7945 20.2695,30.575 32.984,19.044 12.7145,-11.531 25.09864,-24.25246 32.40064,-28.46846 26.327,-15.201 59.932,-6.192 75.131,20.132 15.163,26.264 6.133,59.967 -20.131,75.131 -7.303,4.216 -24.49122,8.5745 -40.85272,13.825 -16.3615,5.2505 -16.3445,32.8415 0,38.087 16.3445,5.2455 33.55072,9.61 40.85172,13.825 26.264,15.164 35.295,48.868 20.131,75.132 z" />
     <path
       id="path2428"
       d="m 256.00001,210.20497 c -25.25138,0 -45.79504,20.54366 -45.79504,45.79504 0,25.25137 20.54366,45.79503 45.79504,45.79503 25.25137,0 45.79503,-20.54366 45.79503,-45.79503 0,-25.25138 -20.54366,-45.79504 -45.79503,-45.79504 z" />
    </g>
   </g>
  </g>
  <path
    style="color:#000000;stroke-width:1.49999988;stroke-linecap:round;paint-order:markers fill stroke"
    d="m 25.75003,254.26562 c -1.1098,0 -2.1477,0.30901 -3.04102,0.8379 l 1.10938,1.10937 c 0.58657,-0.27894 1.23627,-0.44727 1.93164,-0.44727 2.48079,0 4.47473,1.98542 4.49609,4.46094 H 28.168 l 2.83203,2.83203 2.83203,-2.83203 h -2.08398 c -0.0213,-3.28679 -2.70638,-5.96094 -5.99805,-5.96094 z"
    id="path2618" />
  <path
    style="color:#000000;stroke-width:1.49999988;stroke-linecap:round;paint-order:markers fill stroke"
    d="m 21.00003,257.4707 -2.83203,2.83203 h 2.08398 c 0.0204,3.28765 2.70577,5.96289 5.99805,5.96289 1.1098,0 2.1477,-0.309 3.04102,-0.83789 l -1.10938,-1.10937 c -0.58657,0.27893 -1.23627,0.44727 -1.93164,0.44726 -2.48142,0 -4.47574,-1.98647 -4.49609,-4.46289 h 2.07812 z"
    id="path2488" />
  <rect
    width="2.5"
    height="2.5"
    x="20"
    y="14.00014"
    rx="1.3447018"
    ry="1.3447018"
    id="rect25" />
  <rect
    ry="1.3447018"
    rx="1.3447018"
    y="14.00014"
    x="24.261917"
    height="2.5"
    width="2.5"
    id="rect27" />
  <rect
    width="2.5"
    height="2.5"
    x="28.523849"
    y="14.023997"
    rx="1.25"
    ry="1.25"
    id="rect29" />
  <rect
    ry="1.25"
    rx="1.25"
    y="18.250143"
    x="20"
    height="2.5"
    width="2.5"
    id="rect31" />
  <rect
    width="2.5"
    height="2.5"
    x="24.261917"
    y="18.250143"
    rx="1.25"
    ry="1.25"
    id="rect33" />
  <rect
    ry="1.25"
    rx="1.25"
    y="18.274"
    x="28.523849"
    height="2.5"
    width="2.5"
    id="rect35" />
  <rect
    width="2.5"
    height="2.5"
    x="20"
    y="22.500143"
    rx="1.25"
    ry="1.25"
    id="rect37" />
  <rect
    ry="1.25"
    rx="1.25"
    y="22.500143"
    x="24.261917"
    height="2.5"
    width="2.5"
    id="rect39" />
  <rect
    width="2.5"
    height="2.5"
    x="28.523849"
    y="22.524"
    rx="1.25"
    ry="1.25"
    id="rect41" />
 </g>
 <use
   style="fill:#333333"
   id="icons-normal"
   xlink:href="#icons"
   transform="translate(60)" />
 <use
   transform="translate(260)"
   xlink:href="#icons"
   id="icons-hover"
   style="fill:#000000" />
 <use
   transform="translate(460)"
   xlink:href="#icons"
   id="icons-selected"
   style="fill:#3367d6" />
</svg>
