<svg
  xmlns="http://www.w3.org/2000/svg"
  width="80"
  height="80"
  viewBox="0 0 80 80"
  version="1.1"
>
 <defs>
  <clipPath
    clipPathUnits="userSpaceOnUse"
    id="clip">
   <circle
     r="39.5"
     cx="40"
     cy="40" />
  </clipPath>
 </defs>
 <g
   clip-path="url(#clip)"
	>
<circle style="fill:rgb(255,99,99)" r="39" cx="40" cy="40" />
  <path
    style="fill:rgba(0,0,0,0.1)"
    d="M 23.5 25.998047 C 22.669033 25.998047 22 26.63513 22 27.427734 L 22 31.498047 L 22 52.498047 L 22 52.566406 C 22 52.95246 22.159147 53.301744 22.417969 53.558594 L 22.425781 53.566406 L 22.447266 53.587891 L 48.859375 80 L 80 80 L 80 52.873047 L 57.564453 30.4375 C 57.293074 30.164995 56.916504 29.998047 56.5 29.998047 L 37.984375 29.998047 L 34.351562 26.365234 L 34.351562 26.371094 C 34.131971 26.149915 33.859283 25.998047 33.5 25.998047 L 23.5 25.998047 z "
	/>
  <path
    d="m 23.499818,25.997377 c -0.830967,0 -1.499981,0.638059 -1.499981,1.430663 v 4.069531 20.999963 0.06916 c 0,0.792642 0.669014,1.430667 1.499981,1.430667 h 10.000027 22.999972 c 0.831007,0 1.50002,-0.669017 1.50002,-1.500021 V 31.49742 c 0,-0.831004 -0.669013,-1.500017 -1.50002,-1.500017 H 36.185387 L 34.999826,27.427964 C 34.709934,26.799506 34.33081,25.997226 33.499845,25.997226 Z"
    style="fill:#ffffff" />
 </g>
</svg>
