<svg
  xmlns="http://www.w3.org/2000/svg"
  width="80"
  height="80"
  viewBox="0 0 80 80"
  version="1.1"
>
 <defs>
  <clipPath
    clipPathUnits="userSpaceOnUse"
    id="clip">
   <circle
     r="39.5"
     cx="40"
     cy="40" />
  </clipPath>
 </defs>
 <g clip-path="url(#clip)">
  <circle style="fill:#284a75" r="39" cx="40" cy="40" />
  <path
    style="fill:rgba(0,0,0,0.05)"
    d="M 39.962891 25.777344 C 32.786929 25.776743 26.969245 31.593602 26.96875 38.769531 C 28.27356 50.773311 35.469424 44.532525 25.859375 54.142578 L 51.716797 80 L 80 80 L 80 51.714844 L 54.142578 25.857422 C 47.029204 34.307728 48.447628 25.931174 39.962891 25.777344 z "
	/>
  <path
    d="M 40.0,20.0 A 20.0,20.0 0 0 0 19.999886,39.998677 20.0,20.0 0 0 0 40.0,60.0 20.0,20.0 0 0 0 60.0,39.998677 20.0,20.0 0 0 0 40.0,20.0 Z m -0.01512,8.982388 a 1.0,1.0 0 0 1 1.011704,1.0176 v 8.998001 h 5.005871 a 1.000252,1.000252 0 0 1 0,2.000013 h -6.99806 V 29.998685 a 1.0,1.0 0 0 1 0.878892,-1.011704 1.0,1.0 0 0 1 0.101669,-0.0076 z"
    style="fill:#ffffff" />
 </g>
</svg>
