<svg
  xmlns="http://www.w3.org/2000/svg"
  width="80"
  height="80"
  viewBox="0 0 80 80"
  version="1.1"
>
  <rect
    y="1"
    x="1"
    height="78"
    width="78"
    style="fill:#D52954" />
  <path
    d="M 40.0,20.0 A 20.0,20.0 0 0 0 19.999886,39.998677 20.0,20.0 0 0 0 40.0,60.0 20.0,20.0 0 0 0 60.0,39.998677 20.0,20.0 0 0 0 40.0,20.0 Z m -0.01512,8.982388 a 1.0,1.0 0 0 1 1.011704,1.0176 v 8.998001 h 5.005871 a 1.000252,1.000252 0 0 1 0,2.000013 h -6.99806 V 29.998685 a 1.0,1.0 0 0 1 0.878892,-1.011704 1.0,1.0 0 0 1 0.101669,-0.0076 z"
    style="fill:#ffffff" />
 <path
   style="fill:#ffffff"
   d="M 0,0 V 80 H 80 V 0 Z M 40,6 A 34,34 0 0 1 74,40 34,34 0 0 1 40,74 34,34 0 0 1 6,40 34,34 0 0 1 40,6 Z" />
</svg>
