<svg
  xmlns="http://www.w3.org/2000/svg"
  width="80"
  height="80"
  viewBox="0 0 80 80"
  version="1.1"
>
<circle style="fill:#eaeaea" r="39" cx="40" cy="40" />
  <path
    style="fill:#e91e63"
    d="m 39.966652,19.0019 c -0.677782,0.0189 -1.344529,0.188976 -1.990223,0.464806 -1.243389,0.531175 -1.816667,1.753474 -1.828119,3.22458 -0.0076,0.886413 0.03401,1.034419 0.591797,2.148397 0.39738,0.796233 0.595692,1.356208 0.595692,1.677808 v 0.482419 h -9.335962 c -0.55423,0 -0.999988,0.445795 -0.999988,0.999987 v 8.668007 h 0.421871 c 0.281197,0 0.77212,-0.173858 1.468763,-0.521499 0.974778,-0.486388 1.103319,-0.5232 1.878916,-0.515604 1.287194,0.01134 2.355477,0.511597 2.820322,1.59961 0.482759,1.129894 0.605064,2.332388 0,3.539002 -0.530382,1.057588 -1.533128,1.584492 -2.820322,1.599572 -0.775597,0.0076 -0.904138,-0.03024 -1.878916,-0.515565 -0.696643,-0.348095 -1.187415,-0.5215 -1.468763,-0.5215 h -0.421871 v 10.66802 c 0,0.554079 0.445758,1.000063 0.999988,1.000063 h 9.667993 c 0,0 -3.8e-5,-0.279685 0,-0.422173 0,-0.283465 -0.173858,-0.77178 -0.521499,-1.468725 -0.486312,-0.97474 -0.52165,-1.103244 -0.515603,-1.87869 0.01134,-1.287194 0.511635,-2.355515 1.599609,-2.820321 1.129966,-0.482797 2.332498,-0.605178 3.539075,0 1.057549,0.530305 1.587855,1.533127 1.599609,2.820321 0.0076,0.775446 -0.03024,0.90395 -0.515641,1.87869 -0.347716,0.696945 -0.521499,1.187528 -0.521499,1.468725 0,0.139842 0,0.422173 0,0.422173 h 9.667994 c 0.55423,0 0.999987,-0.445984 0.999987,-1.000063 V 41.33192 h -0.42187 c -0.281197,0 -0.77212,0.173481 -1.468763,0.5215 -0.974816,0.486576 -1.103319,0.521801 -1.878879,0.515565 -1.287231,-0.01512 -2.28994,-0.541984 -2.820321,-1.599572 -0.605065,-1.206614 -0.482797,-2.409108 0,-3.539002 0.464806,-1.088013 1.53309,-1.589594 2.820321,-1.59961 0.77556,-0.0076 0.904063,0.03024 1.878879,0.515604 0.696643,0.347716 1.187377,0.521499 1.468763,0.521499 h 0.42187 v -8.668007 c 0,-0.554192 -0.445757,-0.999987 -0.999987,-0.999987 h -9.335963 v -0.482419 c 0,-0.321638 0.198426,-0.881575 0.59573,-1.677808 0.556044,-1.113978 0.598828,-1.261984 0.591798,-2.148397 C 43.8401,21.22018 43.231938,20.072791 42.02332,19.466706 41.333821,19.120879 40.644473,18.984401 39.966652,19.0019 Z"
	/>
</svg>
