<svg
  xmlns="http://www.w3.org/2000/svg"
  width="80"
  height="80"
  viewBox="0 0 80 80"
  version="1.1"
>
<circle style="fill:#eaeaea" r="39" cx="40" cy="40" />
  <path
    d="M 40.0,20.0 A 20.0,20.0 0 0 0 19.999886,39.998677 20.0,20.0 0 0 0 40.0,60.0 20.0,20.0 0 0 0 60.0,39.998677 20.0,20.0 0 0 0 40.0,20.0 Z m -0.01512,8.982388 a 1.0,1.0 0 0 1 1.011704,1.0176 v 8.998001 h 5.005871 a 1.000252,1.000252 0 0 1 0,2.000013 h -6.99806 V 29.998685 a 1.0,1.0 0 0 1 0.878892,-1.011704 1.0,1.0 0 0 1 0.101669,-0.0076 z"
    style="fill:#e91e63" />
</svg>
