<?xml version="1.0" encoding="UTF-8" standalone="no"?>
<svg
   xmlns:dc="http://purl.org/dc/elements/1.1/"
   xmlns:cc="http://creativecommons.org/ns#"
   xmlns:rdf="http://www.w3.org/1999/02/22-rdf-syntax-ns#"
   xmlns:svg="http://www.w3.org/2000/svg"
   xmlns="http://www.w3.org/2000/svg"
   width="40"
   height="40"
   viewBox="0 0 40 40"
   version="1.1"
   id="svg8"
   style="enable-background:new">
  <defs
     id="defs2" />
  <metadata
     id="metadata5">
    <rdf:RDF>
      <cc:Work
         rdf:about="">
        <dc:format>image/svg+xml</dc:format>
        <dc:type
           rdf:resource="http://purl.org/dc/dcmitype/StillImage" />
        <dc:title></dc:title>
      </cc:Work>
    </rdf:RDF>
  </metadata>
  <g
     id="layer1"
     transform="translate(0,-960)">
    <path
       style="color:#000000;fill:#ffffff;fill-rule:evenodd;stroke-width:1px"
       d="M 0 0 L 0 40 L 40 40 L 40 0 L 0 0 z M 14.847656 13.988281 C 15.066818 13.988281 15.285192 14.072294 15.453125 14.240234 L 20 18.787109 L 24.546875 14.240234 C 24.882743 13.904374 25.423899 13.904374 25.759766 14.240234 C 26.095633 14.576104 26.095633 15.117255 25.759766 15.453125 L 21.212891 20 L 25.759766 24.546875 C 26.095633 24.882745 26.095633 25.423896 25.759766 25.759766 C 25.423899 26.095636 24.882743 26.095636 24.546875 25.759766 L 20 21.212891 L 15.453125 25.759766 C 15.117258 26.095636 14.576101 26.095636 14.240234 25.759766 C 13.904367 25.423896 13.904367 24.882745 14.240234 24.546875 L 18.787109 20 L 14.240234 15.453125 C 13.904367 15.117255 13.904367 14.576104 14.240234 14.240234 C 14.408168 14.072244 14.628493 13.988281 14.847656 13.988281 z "
       transform="translate(0,960)"
       id="rect53" />
  </g>
</svg>
