<svg
  xmlns="http://www.w3.org/2000/svg"
  width="80"
  height="80"
  viewBox="0 0 80 80"
  version="1.1"
>
<circle style="fill:#1e272a" r="39" cx="40" cy="40" />
  <path
    d="m 40,20 a 20,20 0 0 0 -3.027344,0.246094 c 0.162898,2.288579 0.144772,4.71285 -2.71289,5.896484 -2.853619,1.181972 -4.580275,-0.513154 -6.082032,-2.24414 a 20,20 0 0 0 -4.28125,4.279296 c 1.731326,1.501984 3.428368,3.227732 2.246094,6.082032 -1.181934,2.853392 -3.600974,2.87488 -5.886719,2.71289 A 20,20 0 0 0 20,40 a 20,20 0 0 0 0.246094,3.029297 c 2.288579,-0.162898 4.712849,-0.146613 5.896484,2.710937 1.182009,2.853732 -0.51323,4.580199 -2.24414,6.082032 a 20,20 0 0 0 4.279296,4.283203 c 1.502098,-1.731591 3.227393,-3.430435 6.082032,-2.248047 2.853505,1.182009 2.874918,3.601012 2.71289,5.886719 A 20,20 0 0 0 40,60 20,20 0 0 0 43.027344,59.753906 c -0.162898,-2.288618 -0.144735,-4.712887 2.71289,-5.896484 2.854073,-1.182199 4.580123,0.514881 6.082032,2.246094 a 20,20 0 0 0 4.28125,-4.279297 c -1.731666,-1.502098 -3.428595,-3.229157 -2.246094,-6.083985 1.181934,-2.853393 3.601012,-2.874918 5.886719,-2.71289 A 20,20 0 0 0 60,40 20,20 0 0 0 59.753906,36.972656 c -2.28858,0.162897 -4.712849,0.144773 -5.896484,-2.71289 -1.182274,-2.8543 0.514768,-4.580048 2.246094,-6.082032 a 20,20 0 0 0 -4.28125,-4.28125 c -1.501985,1.731326 -3.227771,3.428293 -6.082032,2.246094 -2.853468,-1.182009 -2.874918,-3.601012 -2.71289,-5.886719 A 20,20 0 0 0 40,20 Z m 0,10 A 10,10 0 0 1 50,40 10,10 0 0 1 40,50 10,10 0 0 1 30.001953,40 10,10 0 0 1 40,30 Z m 5,10 a 5,5 0 0 1 -5,5 5,5 0 0 1 -5,-5 5,5 0 0 1 5,-5 5,5 0 0 1 5,5 z"
    style="fill:#eff2f3"
	/>
</svg>
